<<<<<<< HEAD
<mxfile host="app.diagrams.net" modified="2023-03-23T02:19:31.320Z" agent="5.0 (Windows NT 10.0; Win64; x64) AppleWebKit/537.36 (KHTML, like Gecko) Chrome/107.0.0.0 Safari/537.36" version="21.0.10" etag="Ehd-NS-T40M5oPqF7JJF" type="device"><diagram id="yTpU5miAtzGVPx0iLS81" name="第 1 页">7ZnLjpswFIafhmUkDAGSZZPOJFLVqlJapZqdhT2AZHBknFufvk5sIAxKcdDIaOpmE/xzfPs/bODg+Mv8tGJwl36lCBPHc9HJ8T87nviFQPxdlLNUonAqhYRlSEqgETbZb6xEV6n7DOGyFcgpJTzbtcWYFgWOeUuDjNFjO+yVknavO5jgjrCJIemq2wzxVKozL2r0Nc6StOoZhHN5JodVsJpJmUJEjzeS/+T4S0Ypl0f5aYnJxbzKF1nv+c7ZemAMF1ynwurL1n35VcYvP+Bii36uiPdtPVGtHCDZqwmrwfJz5QAu0KeLkaJU0EKIi5TnRJSAOGR0XyB86cEVJVkXo46lzRhBPXNxyWCaY87OIuTYeBsov9IbWyuNYQJ5dmg3DxXipG6u7uE7zUTHTUhJ9yzGSr31qgpU120EgnbbHLIE805FcXAzjUa6Wv8ABs8ODPfcfRiL2kxA6BrF5NuJ6Z7b2tiicbFN7cLW5/ZQbP7MLLbAamwdt3WxBcG42EKrsPW6PRRbYBhbZAc2bSwKw2xuFsPMDgz33NVdLdNpe7WYxjQfggnBMr2iAR+Sma712jvefFyGVYrBRohvvQ+GPiSODnFQBuM/xL8/exh+QQOeHXe9R7lMTC8muxIcHXsf5qLWi+nlYldCo89tbWp1JmQkbIMSGv/GrarX+8EQA9N7pF35jX6/dd+k3w+UKDafzWR48/HRf/oD</diagram></mxfile>
=======
<mxfile host="app.diagrams.net" modified="2023-03-21T07:25:20.594Z" agent="5.0 (Windows NT 10.0; Win64; x64) AppleWebKit/537.36 (KHTML, like Gecko) Chrome/107.0.0.0 Safari/537.36" etag="mW1gt44oswhJVXZ36FtT" version="21.0.6" type="github">
  <diagram name="Page-1" id="16e2658f-23c8-b752-8be9-c03fbebb8bbe">
    <mxGraphModel dx="1687" dy="899" grid="1" gridSize="10" guides="1" tooltips="1" connect="1" arrows="1" fold="1" page="1" pageScale="1" pageWidth="1100" pageHeight="850" background="none" math="0" shadow="0">
      <root>
        <mxCell id="0" />
        <mxCell id="1" parent="0" />
        <mxCell id="KmIBynjN26pk-b0_wpwr-4" value="" style="endArrow=none;html=1;rounded=0;" edge="1" parent="1">
          <mxGeometry width="50" height="50" relative="1" as="geometry">
            <mxPoint as="sourcePoint" />
            <mxPoint x="715" as="targetPoint" />
          </mxGeometry>
        </mxCell>
        <mxCell id="KmIBynjN26pk-b0_wpwr-5" value="" style="endArrow=none;html=1;rounded=0;" edge="1" parent="1">
          <mxGeometry width="50" height="50" relative="1" as="geometry">
            <mxPoint x="715" as="sourcePoint" />
            <mxPoint x="715" y="160" as="targetPoint" />
          </mxGeometry>
        </mxCell>
        <mxCell id="KmIBynjN26pk-b0_wpwr-6" value="" style="endArrow=none;html=1;rounded=0;" edge="1" parent="1">
          <mxGeometry width="50" height="50" relative="1" as="geometry">
            <mxPoint x="715" y="160" as="sourcePoint" />
            <mxPoint x="775" y="160" as="targetPoint" />
          </mxGeometry>
        </mxCell>
        <mxCell id="KmIBynjN26pk-b0_wpwr-7" value="" style="endArrow=none;html=1;rounded=0;" edge="1" parent="1">
          <mxGeometry width="50" height="50" relative="1" as="geometry">
            <mxPoint x="775" y="160" as="sourcePoint" />
            <mxPoint x="775" y="380" as="targetPoint" />
          </mxGeometry>
        </mxCell>
        <mxCell id="KmIBynjN26pk-b0_wpwr-8" value="" style="endArrow=none;html=1;rounded=0;" edge="1" parent="1">
          <mxGeometry width="50" height="50" relative="1" as="geometry">
            <mxPoint x="775" y="380" as="sourcePoint" />
            <mxPoint x="555" y="380" as="targetPoint" />
          </mxGeometry>
        </mxCell>
      </root>
    </mxGraphModel>
  </diagram>
</mxfile>
>>>>>>> 924c521b49517ca3c72dc98ff9bc32355ffbb31f
